<svg width="133" height="55" viewBox="0 0 133 55" fill="none" xmlns="http://www.w3.org/2000/svg">
<path d="M82.8794 25.7705V22.375H66.332V44.7713H82.8794V41.3102H69.8247V35.204H82.4149V31.9738H69.8247V25.7705H82.8794Z" fill="#2FC89C"/>
<path d="M89.7587 22.2676C88.7799 22.2676 87.7959 22.8659 87.7959 24.2068C87.7959 25.5477 88.7799 26.1459 89.7587 26.1459C90.7375 26.1459 91.7215 25.545 91.7215 24.2068C91.7215 22.8685 90.7348 22.2676 89.7587 22.2676Z" fill="#2FC89C"/>
<path d="M91.3524 29.1846H88.1562V44.7715H91.3524V29.1846Z" fill="#2FC89C"/>
<path d="M110.229 31.7638L112.01 29.4992L109.701 27.7568L108.088 29.801L107.757 29.5779C106.634 28.817 105.29 28.7199 104.243 28.7199C99.6039 28.7199 96.3711 31.9606 96.3711 36.592C96.3711 41.4833 99.3179 44.4039 104.243 44.4039C106.45 44.4039 108.825 45.5663 108.825 48.1195C108.825 50.4812 106.988 52.0714 104.243 52.0714C101.729 52.0714 99.7824 50.5835 99.5541 48.5472H96.379C96.5994 52.3679 99.7719 54.9998 104.251 54.9998C108.904 54.9998 112.029 52.234 112.029 48.1195C112.029 46.511 111.669 44.4852 108.88 43.0892L108.077 42.6851L108.893 42.3151C111.866 40.9558 112.097 37.5918 112.097 36.592C112.097 34.7263 111.572 33.2752 110.478 32.0262L110.229 31.7638ZM104.243 41.5777C101.467 41.5777 99.52 39.5284 99.52 36.592C99.52 33.6557 101.501 31.546 104.243 31.546C106.985 31.546 108.925 33.6688 108.925 36.592C108.925 39.5152 106.957 41.5777 104.243 41.5777Z" fill="#2FC89C"/>
<path d="M124.548 31.816C127.209 31.816 128.927 33.7054 128.927 36.6286V44.7631H132.123V36.5971C132.123 32.0443 129.499 28.9873 125.61 28.9873C123.742 28.9873 122.176 29.7063 120.528 31.3201L119.906 31.9315L119.58 29.2182H116.77V44.771H119.919V36.8306C119.932 33.9704 121.916 31.816 124.548 31.816Z" fill="#2FC89C"/>
<path d="M29.4472 0L0 24.2962L4.35856 29.581L29.4472 8.97953L54.5358 29.581L58.8944 24.2962L29.4472 0Z" fill="#0042CC"/>
<path d="M42.2503 27.458V43.1341H32.6882V35.0599H26.2094V43.1341H16.6394V27.458H10.1606V43.1341V49.3873H16.6394H26.2094H32.6882H42.2503H43.4468H48.7291V27.458H42.2503Z" fill="#0042CC"/>
</svg>
