<svg width="41" height="23" viewBox="0 0 41 23" fill="none" xmlns="http://www.w3.org/2000/svg">
<path d="M38.2167 4.72963V10.7247H14.3125C14.6774 10.0376 14.885 9.25486 14.885 8.42411C14.885 5.71026 12.6771 3.50243 9.9633 3.50243H4.9216C4.10889 3.50243 3.34234 3.70157 2.66617 4.05187V0.0673828H0V8.42403V10.7246V13.3457V20.3V22.9342H2.66625V20.3H38.2166V22.9342H40.8829V20.3V10.7247V4.72963H38.2167ZM2.66625 8.42411C2.66625 7.18045 3.67803 6.16868 4.92168 6.16868H9.96346C11.2071 6.16868 12.2189 7.18045 12.2189 8.42411C12.2189 9.66776 11.2071 10.6795 9.96346 10.6795H2.66625V8.42411ZM38.2167 17.6338H2.66625V13.3909H38.2166V17.6338H38.2167Z" fill="#404A5E"/>
</svg>
